<?xml version="1.0" standalone="no"?><!DOCTYPE svg PUBLIC "-//W3C//DTD SVG 1.1//EN" "http://www.w3.org/Graphics/SVG/1.1/DTD/svg11.dtd"><svg t="1581766769365" class="icon" viewBox="0 0 1024 1024" version="1.1" xmlns="http://www.w3.org/2000/svg" p-id="1836" width="200" height="200" xmlns:xlink="http://www.w3.org/1999/xlink"><defs><style type="text/css"></style></defs><path d="M513.969231 376.123077c-76.8 0-137.846154 61.046154-137.846154 137.846154s61.046154 137.846154 137.846154 137.846154 137.846154-61.046154 137.846154-137.846154-61.046154-137.846154-137.846154-137.846154z m413.538461 261.907692l-72.861538-61.046154c3.938462-21.661538 5.907692-45.292308 5.907692-66.953846s-1.969231-45.292308-5.907692-66.953846l72.861538-61.046154c23.630769-19.692308 31.507692-55.138462 15.753846-82.707692l-31.507692-55.138462c-11.815385-19.692308-33.476923-31.507692-57.107692-31.507692-7.876923 0-15.753846 1.969231-21.661539 3.938462l-90.584615 33.476923c-35.446154-31.507692-74.830769-53.169231-116.184615-66.953846L610.461538 90.584615c-5.907692-31.507692-33.476923-49.230769-64.984615-49.230769h-63.015385c-31.507692 0-59.076923 17.723077-64.984615 49.230769l-15.753846 90.584616c-43.323077 13.784615-82.707692 37.415385-118.153846 66.953846l-90.584616-33.476923c-7.876923-1.969231-13.784615-3.938462-21.661538-3.938462-23.630769 0-45.292308 11.815385-57.107692 31.507693l-31.507693 55.138461c-15.753846 27.569231-9.846154 63.015385 15.753846 82.707692l72.861539 61.046154c-3.938462 21.661538-5.907692 45.292308-5.907692 66.953846 0 23.630769 1.969231 45.292308 5.907692 66.953847L98.461538 636.061538c-23.630769 19.692308-31.507692 55.138462-15.753846 82.707693l31.507693 55.138461c11.815385 19.692308 33.476923 31.507692 57.107692 31.507693 7.876923 0 15.753846-1.969231 21.661538-3.938462l90.584616-33.476923c35.446154 31.507692 74.830769 53.169231 116.184615 66.953846l15.753846 94.523077c5.907692 31.507692 31.507692 53.169231 64.984616 53.169231h63.015384c31.507692 0 59.076923-23.630769 64.984616-55.138462l15.753846-94.523077c45.292308-15.753846 86.646154-39.384615 122.092308-72.861538l84.676923 33.476923c7.876923 1.969231 15.753846 3.938462 23.630769 3.938462 23.630769 0 45.292308-11.815385 57.107692-31.507693l29.538462-51.2c17.723077-21.661538 9.846154-57.107692-13.784616-76.8z m-413.538461 92.553846c-120.123077 0-216.615385-96.492308-216.615385-216.615384s96.492308-216.615385 216.615385-216.615385 216.615385 96.492308 216.615384 216.615385-96.492308 216.615385-216.615384 216.615384z" p-id="1837"></path></svg>